<?xml version="1.0" encoding="utf-8"?>
<svg viewBox="0 0 500 500" xmlns="http://www.w3.org/2000/svg" xmlns:bx="https://boxy-svg.com">
  <defs>
    <filter id="inner-shadow-filter-0" color-interpolation-filters="sRGB" x="-50%" y="-50%" width="200%" height="200%" bx:preset="inner-shadow 1 -6 -6 3 0.5 rgba(255,255,255,0.78)">
      <feOffset dx="-6" dy="-6"/>
      <feGaussianBlur stdDeviation="3"/>
      <feComposite operator="out" in="SourceGraphic"/>
      <feComponentTransfer result="choke">
        <feFuncA type="linear" slope="1"/>
      </feComponentTransfer>
      <feFlood flood-color="rgba(255,255,255,0.78)" result="color"/>
      <feComposite operator="in" in="color" in2="choke" result="shadow"/>
      <feComposite operator="over" in="shadow" in2="SourceGraphic"/>
    </filter>
  </defs>
  <polygon class="cls-1" points="243.885 166.158 500 166.158 500 0 353.573 0 243.885 166.158" style="fill: rgb(87, 155, 236); filter: url('#inner-shadow-filter-0');" transform="matrix(0.9999999999999999, 0, 0, 0.9999999999999999, 0, 0)"/>
  <polygon class="cls-1" points="375.034 310.582 415.1 249.619 375.047 188.667 348.3 188.667 315.647 188.667 236.789 188.667 229.091 188.667 189.039 249.619 229.104 310.582 236.789 310.582 315.647 310.582 348.3 310.582 375.034 310.582" style="fill: rgb(87, 155, 236); filter: url('#inner-shadow-filter-0');" transform="matrix(0.9999999999999999, 0, 0, 0.9999999999999999, 0, 0)"/>
  <polygon class="cls-1" points="243.891 333.09 353.579 500 500 500 500 333.09 243.891 333.09" style="fill: rgb(87, 155, 236); filter: url('#inner-shadow-filter-0');" transform="matrix(0.9999999999999999, 0, 0, 0.9999999999999999, 0, 0)"/>
  <polygon class="cls-2" points="327.393 0 0 0 0 500" style="stroke-dashoffset: 16px; stroke-width: 6px; stroke-linejoin: bevel; fill-rule: nonzero; fill: rgb(59, 108, 232); paint-order: stroke; filter: url('#inner-shadow-filter-0');" transform="matrix(0.9999999999999999, 0, 0, 0.9999999999999999, 0, 0)"/>
  <polygon class="cls-2" points="24.497 500 326.647 500 175.573 270.112 24.497 500" style="fill: rgb(59, 107, 232); filter: url('#inner-shadow-filter-0');" transform="matrix(0.9999999999999999, 0, 0, 0.9999999999999999, 0, 0)"/>
</svg>